<?xml version="1.0" standalone="no"?>
<!DOCTYPE svg PUBLIC "-//W3C//DTD SVG 20010904//EN"
 "http://www.w3.org/TR/2001/REC-SVG-20010904/DTD/svg10.dtd">
<svg version="1.0" xmlns="http://www.w3.org/2000/svg"
 width="960.000000pt" height="960.000000pt" viewBox="0 0 960.000000 960.000000"
 preserveAspectRatio="xMidYMid meet">
<metadata>
Created by potrace 1.11, written by Peter Selinger 2001-2013
</metadata>
<g transform="translate(0.000000,960.000000) scale(0.100000,-0.100000)"
fill="#000000" stroke="none">
<path d="M5848 9585 c-51 -19 -128 -65 -128 -76 0 -5 -5 -9 -10 -9 -12 0 -99
-91 -114 -118 -5 -10 -12 -19 -16 -22 -15 -12 -150 -223 -150 -235 0 -2 -14
-24 -31 -50 -77 -114 -102 -62 -61 125 36 163 19 231 -51 208 -38 -13 -169
-96 -289 -184 -48 -35 -92 -64 -97 -64 -5 0 -11 -3 -13 -7 -5 -12 -66 -53 -77
-53 -6 0 -15 -8 -20 -17 -6 -10 -11 -15 -11 -10 0 4 -19 -5 -42 -20 -24 -14
-43 -25 -43 -24 0 1 -13 -3 -30 -9 -52 -20 -104 -15 -131 12 -22 21 -28 36
-38 87 -4 23 19 119 48 196 14 38 26 73 26 77 0 16 -17 7 -28 -14 -14 -28 -35
-61 -42 -68 -5 -5 -103 -171 -152 -258 -11 -20 -46 -80 -77 -132 -31 -52 -60
-103 -66 -113 -8 -14 -101 -166 -178 -292 -44 -71 -132 -201 -139 -203 -4 -2
-8 -8 -8 -13 0 -6 -16 -31 -35 -57 -19 -26 -49 -67 -67 -92 -44 -59 -63 -83
-127 -154 -94 -103 -149 -143 -206 -149 -67 -8 -94 41 -166 293 -20 69 -32 90
-49 90 -25 0 -48 -54 -125 -291 -37 -112 -69 -211 -72 -219 -3 -8 -7 -19 -9
-25 -16 -55 -74 -198 -110 -271 -65 -134 -110 -171 -174 -144 -29 12 -68 66
-76 103 -2 10 -5 26 -8 35 -8 26 -16 73 -22 117 -15 131 -49 162 -85 80 -11
-25 -22 -55 -24 -66 -2 -11 -6 -28 -9 -37 -3 -9 -8 -29 -11 -44 -3 -16 -7 -38
-10 -50 -2 -13 -7 -39 -9 -58 -3 -19 -8 -51 -11 -70 -3 -19 -10 -66 -17 -105
-6 -38 -12 -87 -14 -110 -2 -22 -5 -51 -8 -65 -3 -14 -7 -50 -10 -80 -4 -30
-8 -66 -10 -80 -3 -14 -7 -50 -10 -80 -4 -30 -8 -66 -10 -80 -3 -14 -7 -47
-11 -75 -10 -79 -15 -117 -21 -154 -3 -19 -7 -53 -10 -75 -4 -38 -18 -129 -30
-201 -3 -16 -7 -48 -10 -70 -3 -22 -7 -46 -10 -54 -2 -8 -7 -30 -10 -50 -29
-188 -118 -502 -156 -548 -6 -7 -7 -13 -4 -13 4 0 2 -6 -3 -12 -6 -7 -23 -28
-37 -46 -70 -87 -141 -74 -240 46 -30 37 -63 81 -71 97 -9 17 -19 32 -22 35
-3 3 -24 31 -46 64 -41 60 -69 86 -93 86 -12 0 -13 -14 -8 -72 4 -40 9 -74 11
-77 2 -4 6 -24 9 -46 3 -22 8 -51 11 -65 3 -14 7 -35 10 -48 2 -13 6 -31 9
-40 3 -9 7 -34 11 -56 3 -21 7 -42 10 -46 3 -5 7 -21 9 -37 2 -15 15 -82 29
-148 14 -66 28 -131 30 -145 3 -14 8 -36 11 -50 3 -14 8 -36 10 -50 3 -14 10
-50 16 -80 6 -30 13 -70 16 -89 3 -18 8 -43 10 -55 6 -28 13 -69 19 -108 3
-18 8 -44 10 -58 3 -14 7 -43 10 -65 2 -22 7 -58 10 -80 13 -86 16 -135 18
-255 1 -125 -3 -164 -21 -210 -21 -53 -70 -74 -122 -53 -25 10 -111 73 -138
99 -70 70 -170 118 -173 83 -1 -8 -3 -34 -6 -59 -11 -118 -3 -440 12 -520 4
-23 13 -75 20 -130 6 -38 44 -206 59 -260 14 -49 68 -205 92 -265 38 -96 171
-357 199 -391 6 -7 24 -35 40 -63 17 -28 33 -51 38 -51 4 0 7 -5 7 -11 0 -8
50 -79 70 -99 3 -3 17 -21 32 -40 15 -19 39 -48 53 -65 15 -16 36 -43 48 -58
12 -15 36 -43 52 -61 17 -19 37 -42 45 -52 49 -62 106 -130 111 -134 13 -11
79 -110 98 -148 36 -71 23 -120 -35 -134 -19 -5 -88 3 -139 16 -167 43 -199
39 -208 -23 -4 -29 27 -121 58 -171 12 -19 24 -40 26 -45 7 -18 127 -188 159
-225 16 -19 33 -40 37 -45 38 -52 343 -370 343 -359 0 2 12 -9 28 -23 98 -92
400 -313 428 -313 7 0 14 -4 16 -8 3 -9 169 -92 182 -92 4 0 22 -6 39 -14 28
-12 62 -22 147 -43 54 -13 210 -10 265 5 30 8 55 19 55 24 0 4 7 8 15 8 8 0
38 12 66 27 49 27 50 28 44 65 -4 20 -8 54 -10 75 -2 21 -6 54 -9 73 -3 19 -8
64 -11 100 -4 36 -9 81 -11 100 -2 19 -7 64 -9 100 -3 36 -7 92 -10 125 -2 33
-7 94 -10 135 -22 290 -23 1016 0 1266 2 28 7 94 10 145 4 52 8 108 10 124 1
17 6 64 9 105 4 41 9 86 11 100 3 14 7 54 10 90 3 36 7 76 10 90 3 14 8 43 10
65 5 39 22 159 31 220 2 17 7 41 9 55 10 47 13 65 19 110 3 25 8 56 11 70 8
36 25 121 30 150 6 32 22 108 29 140 4 14 9 39 12 55 3 17 12 61 21 99 8 37
17 75 18 85 2 9 4 16 5 16 2 0 5 16 13 56 8 42 94 346 123 434 14 44 27 85 28
90 2 6 6 17 9 25 4 8 22 62 42 120 19 58 39 114 44 125 5 11 19 47 31 80 13
33 29 74 36 90 7 17 27 66 44 110 18 44 35 85 39 90 4 6 14 26 21 45 24 64
209 437 260 526 27 48 50 89 50 92 0 2 17 32 38 66 20 33 42 69 47 78 114 197
383 598 455 675 11 12 20 26 20 30 0 5 8 16 18 24 9 9 26 29 37 44 30 43 125
161 160 199 6 6 35 40 65 76 30 36 64 74 75 86 241 259 406 425 427 433 6 2
-2 -10 -18 -26 -136 -138 -368 -421 -527 -643 -53 -74 -103 -143 -112 -152 -8
-10 -15 -21 -15 -24 0 -6 -60 -96 -69 -104 -7 -6 -38 -56 -146 -235 -72 -119
-83 -138 -142 -245 -53 -95 -189 -363 -203 -400 -7 -19 -20 -43 -28 -52 -8
-10 -12 -18 -9 -18 4 0 -2 -17 -13 -37 -28 -56 -112 -256 -113 -270 0 -7 -4
-13 -9 -13 -4 0 -8 -6 -8 -13 0 -7 -15 -51 -34 -98 -19 -46 -44 -116 -56 -154
-13 -39 -26 -74 -30 -80 -5 -5 -9 -13 -9 -17 -1 -5 -1 -9 -2 -10 0 -2 -2 -10
-4 -19 -1 -9 -14 -50 -28 -90 -71 -205 -196 -697 -223 -879 -3 -19 -7 -46 -10
-60 -7 -40 -23 -142 -29 -185 -4 -22 -8 -49 -10 -61 -2 -11 -6 -52 -10 -90 -4
-38 -9 -78 -11 -89 -5 -26 -12 -85 -18 -160 -3 -33 -8 -87 -11 -120 -8 -86
-13 -154 -20 -280 -3 -60 -8 -150 -11 -200 -8 -149 -4 -875 6 -875 3 0 5 -24
4 -52 -1 -29 3 -58 8 -65 5 -7 5 -14 -2 -18 -6 -3 -8 -10 -6 -14 3 -4 7 -43
11 -87 3 -43 7 -97 10 -119 2 -22 7 -71 10 -110 4 -38 9 -82 11 -98 2 -15 6
-51 9 -80 3 -28 7 -68 10 -87 3 -19 8 -53 10 -75 2 -22 6 -53 9 -70 2 -16 7
-52 11 -80 4 -27 9 -59 11 -70 3 -11 7 -36 10 -55 9 -57 21 -127 30 -175 3
-16 8 -46 11 -65 2 -19 13 -71 23 -115 10 -44 17 -82 15 -85 -2 -3 49 -39 113
-80 64 -41 119 -78 122 -82 3 -4 15 -9 25 -11 11 -2 31 -9 45 -14 27 -12 168
-52 203 -59 12 -2 33 -6 47 -9 82 -15 131 -19 270 -19 85 1 178 4 205 8 28 4
61 9 75 10 14 2 32 6 40 10 8 3 26 8 40 10 33 6 160 43 185 54 152 66 438 228
499 283 31 28 45 39 52 39 21 0 289 258 360 347 21 26 47 55 56 64 10 9 18 20
18 24 0 5 7 15 15 24 26 28 71 79 111 127 21 25 47 56 58 68 10 11 30 37 45
56 14 19 29 37 32 40 16 14 159 210 159 218 0 6 4 12 9 14 11 4 111 162 111
176 0 5 3 12 8 14 5 2 51 89 52 101 0 1 6 22 13 47 23 80 12 118 -41 146 -20
11 -47 20 -59 19 -29 -3 -115 -26 -128 -35 -15 -11 -65 -22 -108 -25 -30 -2
-43 3 -66 26 -33 33 -40 62 -36 145 3 60 40 218 66 279 7 17 13 35 14 41 9 39
153 383 239 567 20 43 36 81 36 84 0 3 11 27 24 53 13 27 22 50 20 53 -2 2 2
10 11 17 8 7 15 18 15 25 0 7 14 44 30 81 53 116 66 147 75 174 1 3 6 16 12
30 16 38 65 174 67 185 1 6 4 15 8 20 3 6 9 26 14 45 4 19 9 40 10 45 2 6 6
21 9 35 4 14 9 57 12 96 4 55 1 80 -12 108 -32 67 -72 73 -216 36 -129 -34
-192 -27 -205 24 -10 41 15 133 101 367 73 196 97 271 121 364 11 43 15 151 6
180 -13 44 -81 89 -134 88 -39 -1 -117 -21 -128 -33 -3 -3 -28 -12 -55 -21
-84 -26 -119 -2 -109 74 6 40 73 248 85 263 5 6 10 19 12 30 2 10 10 33 16 49
47 112 103 287 118 365 9 50 10 126 1 151 -21 60 -104 104 -172 93 -36 -7
-109 -32 -146 -51 -41 -21 -79 -16 -92 11 -6 14 -7 33 -3 43 5 10 9 21 9 25 2
13 71 143 79 146 4 2 7 7 7 12 0 7 79 151 110 200 5 8 24 44 42 80 18 36 36
67 41 68 4 2 7 10 7 17 0 7 11 35 24 62 29 58 77 183 70 183 -2 0 0 8 5 19 23
43 34 183 19 239 -17 59 -50 98 -130 153 -89 60 -109 93 -78 132 11 14 63 55
116 93 169 120 249 211 287 330 28 84 41 190 25 200 -5 3 -6 10 -2 15 8 13
-13 73 -35 97 -16 19 -40 29 -86 36 -20 3 -59 -4 -103 -18 -22 -7 -23 -6 -12
15 14 25 128 139 141 139 4 0 14 6 21 13 18 18 133 63 183 73 72 13 206 8 290
-10 27 -6 107 -26 125 -31 93 -28 156 -36 184 -25 22 8 26 16 26 49 0 22 -5
53 -11 68 -17 42 -53 117 -59 123 -3 3 -11 17 -18 31 -8 14 -23 37 -35 52 -12
14 -42 49 -66 79 -53 63 -155 154 -231 205 -88 59 -238 133 -280 138 -3 0 -10
3 -15 7 -14 9 -157 38 -225 46 -71 9 -338 8 -415 -1 -33 -3 -79 -8 -102 -11
-23 -2 -55 -7 -70 -10 -91 -19 -195 -27 -211 -17 -18 11 17 52 83 96 67 44
107 83 102 98 -4 14 -139 15 -252 2 -202 -22 -292 -23 -312 -2 -21 21 -9 36
71 84 81 49 106 76 106 117 0 51 -41 98 -122 141 -88 46 -233 66 -300 40z
m382 -2059 c0 -2 -7 -7 -16 -10 -8 -3 -12 -2 -9 4 6 10 25 14 25 6z"/>
</g>
</svg>
