<svg viewBox="0 0 18 18" xmlns="http://www.w3.org/2000/svg">
<path d="M15.9135 0.358163L9 7.27163L2.08653 0.358163C1.60898 -0.119388 0.835714 -0.119388 0.358163 0.358163C-0.119388 0.835714 -0.119388 1.60898 0.358163 2.08653L7.27163 9L0.358163 15.9135C-0.119388 16.391 -0.119388 17.1643 0.358163 17.6418C0.835714 18.1194 1.60898 18.1194 2.08653 17.6418L9 10.7284L15.9135 17.6418C16.391 18.1194 17.1643 18.1194 17.6418 17.6418C18.1194 17.1643 18.1194 16.391 17.6418 15.9135L10.7284 9L17.6418 2.08653C18.1194 1.60898 18.1194 0.835714 17.6418 0.358163C17.1643 -0.119388 16.391 -0.119388 15.9135 0.358163Z"/>
</svg>
