<svg xmlns="http://www.w3.org/2000/svg" viewBox="0 0 512 512">
<path d="M256,0C114.51,0,0,114.5,0,256S114.5,512,256,512,512,397.5,512,256,397.5,0,256,0Zm0,472A216,216,0,1,1,472,256,215.88,215.88,0,0,1,256,472Z"/>
<path d="M153.86,168.41Q112,210.25,70.19,252.08c-3.34,3.33-3.56,4.18-.86,6.92,28,28.38,56.37,56.37,84.56,84.56,0,0,12.51,13.39,28.25,0s0-28.29,0-28.29L122.84,256l59.3-59.3s13.14-14.54,0-28.29S153.86,168.41,153.86,168.41Z"/>
<path d="M199.05,273.4H414.94s13.32-5,13.32-17.49-13.32-17.49-13.32-17.49H199.05s-12.57,5-12.57,17.49S199.05,273.4,199.05,273.4Z"/></svg>