<svg xmlns="http://www.w3.org/2000/svg" viewBox="0 0 10.74 15.12"><g id="Layer_2" data-name="Layer 2"><g id="Layer_1-2" data-name="Layer 1"><g id="Layer_2-2" data-name="Layer 2"><g id="Layer_2-2-2" data-name="Layer 2-2"><path d="M9.57.93C8.83.72,8.07,1,8,.93s.33-.23.3-.31-.88.1-.91,0,.3-.15.3-.31S7.41,0,7.12,0c-.54.07-.81,1-.91.92s.13-.52,0-.62-1,.77-1.23.62S5.05.35,5,.31,3.62,2.9,3.19,2.76C3,2.7,3,2.15,2.89,2.15s-.42,1.52-.7,1.52-.19-.62-.3-.62c-.28,0-.33,3.61-.92,3.67-.26,0-.49-.66-.61-.61S1.08,9,.67,9.16c-.18.09-.46-.38-.61-.3A4.11,4.11,0,0,0,1,11.91c.29.36.71.77.61.92s-.52-.12-.61,0c-.21.28,1.67,2.5,2.75,2.14L4,14.85a16.05,16.05,0,0,1,.25-5.74A11.51,11.51,0,0,1,7.69,3.18a11.32,11.32,0,0,0-3,6,15.53,15.53,0,0,0,.16,5.52c.13.07.23.15.38.24a2.42,2.42,0,0,0,1.83,0,3.81,3.81,0,0,0,1.53-1.22c.42-.47,1.09-1.32.92-1.53s-.46.13-.62,0c-.43-.37,1.34-3,.92-3.36-.15-.12-.47.14-.61,0s.55-1.3.31-1.53-.48.13-.62,0S9.45,6,9.2,5.77s-.5.13-.61,0,.91-1.34.61-1.83c-.1-.16-.3-.17-.31-.3s.42-.24.62-.62c.11-.22.12-.52,0-.61s-.29,0-.31,0,.13-.21.31-.3c.53-.29,1.12.14,1.22,0S10.39,1.16,9.57.93Z"/></g></g></g></g></svg>