<svg xmlns="http://www.w3.org/2000/svg" viewBox="0 0 134.32 16.06"><defs><style>.cls-1{fill:#fff;}</style></defs><g id="Layer_2" data-name="Layer 2"><g id="Layer_2-2" data-name="Layer 2"><path class="cls-1" d="M11.76.23h3V.45L13.44.78v14.3l1.27.33v.22H10.4v-.22l1.26-.33V2.1L7.14,16H6.83L1.79,2.1V14.86l1.36.55v.22H0v-.22l1.37-.55V.89L0,.45V.23H3.05l4.6,12.65Z"/><path class="cls-1" d="M21.85,9.47v5.61l1.26.33v.22H18.8v-.22l1.26-.33V9.58L16.81.78,15.54.45V.23H20V.45L18.7.78l3,8L24.58,1,23.21.45V.23h3.15V.45L25,1Z"/><path class="cls-1" d="M35.38,1.26c-.74-.21-1.5.11-1.53,0s.33-.23.3-.31-.88.1-.91,0,.3-.15.3-.31-.32-.34-.61-.3c-.54.07-.81,1-.91.92s.13-.52,0-.62-1,.77-1.23.62.07-.58,0-.62S29.43,3.23,29,3.09c-.2-.06-.17-.61-.3-.61S28.28,4,28,4s-.19-.62-.3-.62c-.28,0-.33,3.61-.92,3.67-.26,0-.49-.66-.61-.61s.72,2.86.31,3.05c-.18.09-.46-.38-.61-.3s-.08,1.81.91,3.05c.29.36.71.77.61.92s-.52-.12-.61,0c-.21.28,1.67,2.5,2.75,2.14a1.92,1.92,0,0,0,.25-.12,16,16,0,0,1,.25-5.74,11.56,11.56,0,0,1,3.47-5.93,11.35,11.35,0,0,0-3,6,15.51,15.51,0,0,0,.16,5.52c.13.07.23.15.38.24a2.35,2.35,0,0,0,1.83,0,3.67,3.67,0,0,0,1.53-1.22c.42-.47,1.09-1.32.92-1.53s-.46.13-.62,0c-.43-.37,1.34-3,.92-3.36-.15-.12-.47.14-.61,0s.55-1.3.31-1.53-.48.13-.62,0,.56-1.29.31-1.53-.5.13-.61,0,.91-1.34.61-1.83c-.1-.16-.3-.17-.31-.3s.42-.24.62-.62c.11-.22.12-.52,0-.61s-.29.05-.31,0,.13-.21.31-.3c.53-.29,1.12.14,1.22,0S36.2,1.49,35.38,1.26Z"/><path class="cls-1" d="M39.91,3.19a2.48,2.48,0,0,0,.5,1.55,6.58,6.58,0,0,0,1.26,1.2A19.42,19.42,0,0,0,43.31,7,10.31,10.31,0,0,1,45,8.22a6,6,0,0,1,1.26,1.57,4.5,4.5,0,0,1,.5,2.2,4.51,4.51,0,0,1-.29,1.61,3.92,3.92,0,0,1-.83,1.29,3.71,3.71,0,0,1-1.27.86,3.91,3.91,0,0,1-1.58.31,4.88,4.88,0,0,1-1.36-.16,4.44,4.44,0,0,1-.94-.39A2.85,2.85,0,0,1,39.7,15a2.39,2.39,0,0,1-.45.62,1.3,1.3,0,0,1-.59.37h-.32c0-.21,0-.43,0-.66s0-.4,0-.64,0-.46,0-.68,0-.49,0-.74,0-.46,0-.67,0-.46,0-.68h.32a6.25,6.25,0,0,0,1.39,2.78,3.24,3.24,0,0,0,2.48,1,2.62,2.62,0,0,0,2-.85,3.27,3.27,0,0,0,.79-2.34,2.48,2.48,0,0,0-.5-1.55,6.58,6.58,0,0,0-1.26-1.2A19.42,19.42,0,0,0,42,8.6a10.31,10.31,0,0,1-1.64-1.2,5.81,5.81,0,0,1-1.25-1.57,4.39,4.39,0,0,1-.51-2.2,3.51,3.51,0,0,1,.28-1.41,3.58,3.58,0,0,1,.75-1.15A3.53,3.53,0,0,1,42.11,0a3.15,3.15,0,0,1,1.11.18A4.41,4.41,0,0,1,44,.55a4.07,4.07,0,0,1,.69.55,2.39,2.39,0,0,1,.45-.62,1.39,1.39,0,0,1,.6-.37h.31q0,.33-.06.66c0,.21,0,.42,0,.65s0,.45,0,.67,0,.49,0,.74,0,.46,0,.67,0,.46.06.68h-.31A6.68,6.68,0,0,0,44.43,1.4a2.72,2.72,0,0,0-2.11-1,2.24,2.24,0,0,0-1.72.75A2.83,2.83,0,0,0,39.91,3.19Z"/><path class="cls-1" d="M51.31,10v5.17l1.25.33v.22H48.28v-.22l1.25-.33V.88L48.28.55V.33h4.28V.55L51.31.88V9.24L55.8,1.1,54.44.55V.33h3.14V.55l-1.36.55L53.59,5.87l4.2,9.31,1.25.33v.22H54.55v-.22l1.25-.33L52.5,7.85Z"/><path class="cls-1" d="M64.17,9.57v5.61l1.25.33v.22H61.14v-.22l1.25-.33V9.68L59.15.88,57.89.55V.33h4.4V.55L61,.88l3,8L66.89,1.1,65.53.55V.33h3.13V.55L67.3,1.1Z"/><path class="cls-1" d="M77.86,1.1,76.5.55V.33h3.14V.55l-1.36.55V16H78L70.86,2.2V15l1.36.55v.22H69.08v-.22L70.44,15V1L69.08.55V.33H71.9l6,11.55Z"/><path class="cls-1" d="M86.44,11.22H82.15L81.1,15l1.36.55v.22H79.33v-.22L80.69,15,84.76,0h.32l4.39,15.18,1.25.33v.22H86.33v-.22l1.26-.33Zm-4.19-.42h4.06L84.22,3.52Z"/><path class="cls-1" d="M95.32,15.18l1.26.33v.22H92.29v-.22l1.26-.33V.77h-2.2A4.11,4.11,0,0,1,91,2.49a4.6,4.6,0,0,1-.9,1.36h-.2c0-.19,0-.39,0-.59s0-.37,0-.57,0-.39,0-.6,0-.52,0-.74,0-.4,0-.56,0-.33,0-.46H99a2.86,2.86,0,0,0-.06.46c0,.16,0,.35,0,.56s0,.46,0,.74,0,.41,0,.6,0,.39,0,.57a5.61,5.61,0,0,0,.06.59h-.21a5,5,0,0,1-.9-1.36A4.26,4.26,0,0,1,97.52.77h-2.2Z"/><path class="cls-1" d="M109.75,11.33a5.45,5.45,0,0,1-1,3.61A3.49,3.49,0,0,1,106,16.06a4.37,4.37,0,0,1-3.32-1.24,4.85,4.85,0,0,1-1.18-3.49V.88L100.24.55V.33h4.28V.55l-1.25.33V11.33a5.22,5.22,0,0,0,.83,3.26,2.59,2.59,0,0,0,2.1,1,3.11,3.11,0,0,0,1.28-.25,2.54,2.54,0,0,0,1-.78,3.83,3.83,0,0,0,.64-1.33,7.24,7.24,0,0,0,.23-1.93V1.1L108,.55V.33h3.14V.55l-1.36.55Z"/><path class="cls-1" d="M116.34.33a7.67,7.67,0,0,1,2.32.31,4.81,4.81,0,0,1,1.63.83,3.46,3.46,0,0,1,1,1.22,3.59,3.59,0,0,1,.31,1.49,3.53,3.53,0,0,1-.17,1.13,3.66,3.66,0,0,1-.46.88,2.71,2.71,0,0,1-.66.65,4.52,4.52,0,0,1-.76.44,6,6,0,0,1-2,.53,5.48,5.48,0,0,1,1.67.46,4.24,4.24,0,0,1,1.21.9,2.66,2.66,0,0,1,.67,1.61l.42,3.85a1.07,1.07,0,0,0,.19.59.43.43,0,0,0,.33.18.42.42,0,0,0,.22-.08,1.24,1.24,0,0,0,.22-.18,1.32,1.32,0,0,0,.19-.29l.21.22a1.49,1.49,0,0,1-.36.51,2.59,2.59,0,0,1-.49.33,1.79,1.79,0,0,1-1.88-.28,1.57,1.57,0,0,1-.51-1l-.42-3.85a6,6,0,0,0-.27-1.26,2.44,2.44,0,0,0-.51-.85,2.08,2.08,0,0,0-.83-.49A4.3,4.3,0,0,0,116.34,8h-.84v7.15l1.25.33v.22h-4.28v-.22l1.25-.33V.88L112.47.55V.33Zm3.24,3.85a3.53,3.53,0,0,0-.84-2.53,3.15,3.15,0,0,0-2.4-.88h-.84V7.59h.84a3.15,3.15,0,0,0,2.4-.88A3.53,3.53,0,0,0,119.58,4.18Z"/><path class="cls-1" d="M130,11.22h-4.28l-1,3.74,1.36.55v.22h-3.14v-.22l1.36-.55,4.08-15h.31l4.39,15.18,1.26.33v.22h-4.39v-.22l1.25-.33Zm-4.18-.42h4.06l-2.09-7.28Z"/></g></g></svg>