<?xml version="1.0" encoding="UTF-8" standalone="no"?>
<svg
   xmlns:dc="http://purl.org/dc/elements/1.1/"
   xmlns:cc="http://creativecommons.org/ns#"
   xmlns:rdf="http://www.w3.org/1999/02/22-rdf-syntax-ns#"
   xmlns:svg="http://www.w3.org/2000/svg"
   xmlns="http://www.w3.org/2000/svg"
   xmlns:sodipodi="http://sodipodi.sourceforge.net/DTD/sodipodi-0.dtd"
   xmlns:inkscape="http://www.inkscape.org/namespaces/inkscape"
   version="1.1"
   id="svg2"
   width="190.368"
   height="53.375999"
   viewBox="0 0 190.368 53.375999"
   sodipodi:docname="logo2.1.svg"
   inkscape:version="1.0.1 (0767f8302a, 2020-10-17)">
  <metadata
     id="metadata8">
    <rdf:RDF>
      <cc:Work
         rdf:about="">
        <dc:format>image/svg+xml</dc:format>
        <dc:type
           rdf:resource="http://purl.org/dc/dcmitype/StillImage" />
        <dc:title></dc:title>
      </cc:Work>
    </rdf:RDF>
  </metadata>
  <defs
     id="defs6" />
  <sodipodi:namedview
     pagecolor="#ffffff"
     bordercolor="#666666"
     borderopacity="1"
     objecttolerance="10"
     gridtolerance="10"
     guidetolerance="10"
     inkscape:pageopacity="0"
     inkscape:pageshadow="2"
     inkscape:window-width="1920"
     inkscape:window-height="1016"
     id="namedview4"
     showgrid="false"
     inkscape:zoom="4.6095958"
     inkscape:cx="66.073747"
     inkscape:cy="20.061873"
     inkscape:window-x="0"
     inkscape:window-y="27"
     inkscape:window-maximized="1"
     inkscape:current-layer="g10" />
  <g
     inkscape:groupmode="layer"
     inkscape:label="Image"
     id="g10">
    <path
       style="fill:#000000;stroke-width:0.096"
       d="M 2.4884496,53.253296 C 2.2763823,53.089161 0.192,49.952309 0.192,49.797299 0.192,49.727504 0.14525318,49.623652 0.08811818,49.566517 -0.10485323,49.373546 0.2021211,49.089347 1.2408684,48.499291 7.0962632,45.173165 12.401424,43.50364 21.552,42.107413 c 2.289894,-0.3494 8.205946,-1.129248 11.712,-1.543865 7.747071,-0.916148 17.27706,-1.293041 55.872,-2.209636 25.14408,-0.597149 35.5021,-0.564077 45.504,0.14529 7.22503,0.512422 11.123,1.088992 22.704,3.358275 8.85827,1.735765 10.7413,2.011898 13.728,2.013108 3.15403,0.0013 5.30925,-0.625136 7.29252,-2.119569 3.32623,-2.506397 5.28528,-6.897889 6.12005,-13.719017 0.242,-1.977441 0.24101,-9.03157 -0.002,-11.615999 -0.31907,-3.398635 -1.14975,-9.5528804 -1.31295,-9.7273038 -0.0408,-0.043617 -0.63035,0.072957 -1.3101,0.2590532 -6.46992,1.7713003 -12.90935,2.8992738 -19.76389,3.4619766 -4.00522,0.328795 -5.92105,0.389286 -12.288,0.387982 -8.09979,-0.0017 -9.62483,-0.100077 -16.32,-1.0532176 C 131.4816,9.458854 129.3216,9.1586117 128.688,9.077285 123.22469,8.376033 117.32056,8.1040966 109.44,8.1907467 100.30564,8.2911828 96.393341,8.6070954 85.536,10.120958 78.659451,11.079771 76.734984,11.275129 72.688197,11.425179 64.949934,11.712104 56.564353,10.757167 45.168,8.2912209 39.038926,6.9650101 37.109989,6.6209898 34.704,6.4249959 28.52123,5.9213427 22.362985,8.2718141 16.70194,13.296 14.327429,15.403381 11.571346,18.750666 9.6543197,21.855391 9.3556786,22.339057 9.0554874,22.756214 8.9872285,22.782407 8.8003102,22.854134 4.3733836,20.195949 4.3414879,19.992832 4.3115241,19.802019 5.5856695,17.762855 6.7263854,16.176 8.3911746,13.860104 9.9170563,12.079688 11.869968,10.174407 14.743782,7.3706868 17.510004,5.3954595 20.88,3.7407736 22.978682,2.7103095 24.782764,2.0303864 26.719115,1.5401258 29.106324,0.93571288 30.118091,0.81914462 32.976,0.81925384 36.609613,0.81939304 37.994283,1.0221425 45.770715,2.692716 52.965269,4.2382872 57.038996,4.9253905 61.943289,5.4204948 65.570151,5.7866384 68.018644,5.8892055 71.616,5.8256838 75.656576,5.7543357 78.293899,5.5086107 84.209225,4.6523472 96.09695,2.9315584 101.89548,2.5270674 113.34562,2.6198653 c 8.89522,0.072092 11.98814,0.2934179 19.75838,1.4138882 7.20654,1.0391853 8.97022,1.1702091 15.6,1.1589258 13.47654,-0.022936 18.07552,-0.5926663 31.776,-3.9364707 2.3496,-0.57345467 4.54559,-1.09313168 4.87998,-1.15483782 0.59148,-0.10914908 0.61396,-0.10573583 0.82854,0.12580548 0.68968,0.74417543 1.53661,2.63405174 2.01246,4.49072854 0.59433,2.318885 1.46426,8.1134652 1.82108,12.1300952 0.43619,4.909913 0.45575,10.189326 0.0504,13.583999 -0.14566,1.219699 -0.61082,3.448707 -0.99598,4.772628 -1.75511,6.033028 -5.35533,10.818146 -9.74875,12.957213 -3.71162,1.807112 -7.85122,2.059579 -14.49569,0.884065 -0.6072,-0.107424 -3.90771,-0.754575 -7.33446,-1.438112 -6.90117,-1.376582 -11.14633,-2.147378 -14.20545,-2.57929 C 132.1673,43.45782 119.4589,43.211787 88.56,43.9689 c -23.727799,0.581401 -29.886391,0.755313 -39.216,1.107425 -6.129602,0.231339 -10.421454,0.501555 -13.776,0.86734 -2.266694,0.247164 -9.658015,1.180497 -12.144,1.533474 -9.388568,1.33305 -14.9951222,2.847106 -19.248,5.197941 -0.4752,0.262673 -0.9504,0.501336 -1.056,0.530362 -0.1056,0.02903 -0.2568,0.07806 -0.336,0.108962 -0.0792,0.0309 -0.2121977,0.0034 -0.2955504,-0.06111 z M 8.8856983,43.22772 C 8.5500531,43.038264 8.3901452,42.879216 8.3387023,42.683666 8.1491315,41.963049 7.9681717,39.963617 7.9697587,38.607192 c 0.00262,-2.238251 0.3297364,-4.151249 1.0026968,-5.863813 0.3380815,-0.860357 0.217728,-0.857357 -0.1749695,0.0044 -0.7223371,1.585064 -1.1024021,2.911037 -1.361884,4.751347 -0.157219,1.115036 -0.2016893,3.515798 -0.088975,4.803347 0.063741,0.728114 0.054802,0.789764 -0.1287546,0.888 -0.7291355,0.39018 -2.0512393,-0.26351 -3.1870258,-1.575809 -0.557419,-0.644048 -0.7418541,-1.045436 -0.5735516,-1.248228 0.082549,-0.09947 0.2081994,-0.134768 0.3515815,-0.09878 0.334258,0.08389 0.2777581,-0.09118 -0.2420506,-0.750046 -0.5932021,-0.751888 -0.925548,-1.328326 -1.1618677,-2.0152 -0.3957015,-1.150127 -0.449552,-2.120347 -0.1246072,-2.24504 0.077578,-0.02977 0.2617007,0.01714 0.4091619,0.104251 0.1474611,0.08711 0.2938458,0.158377 0.3252991,0.158377 0.1244176,0 0.039902,-0.784992 -0.2259118,-2.098301 -0.1534325,-0.758066 -0.255881,-1.438466 -0.2276633,-1.512 0.086439,-0.225257 0.2867749,-0.150358 0.5819296,0.21756 0.1655392,0.20635 0.3272769,0.323146 0.3920502,0.283114 0.1826959,-0.112912 0.3853167,-0.978321 0.6256156,-2.672052 0.2112821,-1.489205 0.3319513,-1.898318 0.5599162,-1.898318 0.049082,0 0.1344001,0.12955 0.1895969,0.287886 0.055197,0.158338 0.1324782,0.268035 0.1717369,0.243772 0.039259,-0.02426 0.1491971,-0.337412 0.2443077,-0.695887 0.095111,-0.358473 0.2115017,-0.727371 0.2586469,-0.819771 0.1372985,-0.269091 0.3654954,-0.19496 0.51715,0.168 0.077214,0.1848 0.1801178,0.336 0.2286742,0.336 0.1515921,0 0.7170521,-0.772255 1.3882865,-1.895999 0.6987702,-1.169844 0.9967801,-1.388537 0.9273136,-0.680505 -0.028986,0.295441 0.149976,0.265423 0.6730865,-0.112901 C 9.894624,24.254688 10.117673,24.20401 10.264044,24.456 c 0.08925,0.153648 0.116307,0.14622 0.31677,-0.08696 0.392685,-0.456769 0.799137,-0.568479 1.276701,-0.350886 0.154392,0.07035 0.27126,0.217718 0.304517,0.384 0.04608,0.230407 0.10029,0.269843 0.370929,0.269843 0.214939,0 0.326951,0.0499 0.348,0.155016 0.02512,0.125448 0.177532,0.158185 0.799039,0.17163 0.57931,0.01253 0.865516,0.06788 1.164907,0.225276 0.694716,0.365225 1.370469,1.19391 1.243466,1.524874 -0.04291,0.111811 -0.191821,0.128155 -0.750945,0.08241 -0.797491,-0.06524 -1.065953,0.02998 -0.808997,0.286935 0.08776,0.08776 0.159569,0.222671 0.159569,0.299795 0,0.297255 -0.278515,0.784721 -0.58572,1.025145 l -0.320916,0.251155 0.213317,0.227067 c 0.303072,0.322605 0.267013,0.631619 -0.170681,1.462692 -0.2112,0.401017 -0.384,0.767662 -0.384,0.814766 0,0.0471 0.162,0.09905 0.36,0.115439 0.308743,0.02555 0.364188,0.06596 0.389414,0.283824 0.01618,0.139716 -0.08327,0.521763 -0.221002,0.848993 -0.137729,0.32723 -0.234534,0.642613 -0.215122,0.70085 0.01941,0.05824 0.178688,0.108191 0.353944,0.111008 0.503483,0.0081 0.575516,0.22956 0.306357,0.94191 -0.379032,1.003137 -0.37895,1.042435 0.0021,1.01677 0.180157,-0.01213 0.379921,0.0103 0.44392,0.04986 0.251101,0.155189 0.107438,0.781212 -0.513646,2.238248 -0.700514,1.643373 -0.757188,2.018226 -0.297761,1.969412 0.366468,-0.03894 0.571861,0.143926 0.496942,0.442429 -0.09259,0.368923 -0.727872,1.241079 -1.531791,2.102956 -0.987337,1.058517 -1.647926,1.395746 -2.825206,1.44226 -0.7607364,0.03006 -0.8667993,0.01092 -1.3024779,-0.235 z M 157.00674,36.499317 c -1.13056,-0.39094 -1.80765,-1.001183 -2.18149,-1.966124 -0.16437,-0.424269 -0.20559,-0.840083 -0.26853,-2.709194 -0.0828,-2.459502 -0.22536,-3.245537 -0.77585,-4.27834 -0.56107,-1.052674 -1.61152,-1.772706 -2.67687,-1.834857 l -0.528,-0.0308 -0.025,4.444533 -0.025,4.444533 0.30211,0.275943 c 0.19485,0.177966 0.28124,0.330353 0.24332,0.429179 -0.052,0.135485 -0.32859,0.150257 -2.38789,0.127523 -2.12432,-0.02345 -2.33191,-0.04039 -2.36119,-0.192656 -0.0202,-0.104789 0.0598,-0.208814 0.21473,-0.279409 L 146.784,34.81718 V 24.423267 14.029353 l -0.216,-0.03068 c -0.14177,-0.02014 -0.216,-0.09666 -0.216,-0.222677 0,-0.188284 0.0724,-0.192487 3.73949,-0.217146 4.09615,-0.02754 4.20463,-0.0162 5.34304,0.558463 1.32491,0.66881 2.44456,1.998004 2.92981,3.47809 0.22125,0.67488 0.25901,0.954708 0.26189,1.940593 0.003,1.045466 -0.024,1.22978 -0.29237,1.993076 -0.58731,1.670368 -1.55966,2.839603 -2.93311,3.527035 -0.42183,0.211138 -0.82678,0.383889 -0.89987,0.383889 -0.26097,0 -0.11841,0.149016 0.45909,0.479877 0.70629,0.404639 1.66437,1.412055 2.07098,2.177618 0.62018,1.167647 0.71452,1.622315 0.79752,3.843446 0.0502,1.342407 0.12665,2.210712 0.22428,2.546577 0.18814,0.647169 0.70039,1.249286 1.25787,1.47855 0.51625,0.212307 0.56775,0.448307 0.13106,0.60054 -0.47017,0.1639 -1.87893,0.124969 -2.43494,-0.06729 z m -4.08732,-11.770632 c 1.73598,-0.894185 2.71773,-3.365483 2.41863,-6.088311 -0.32752,-2.98158 -1.46589,-4.424914 -3.62084,-4.590832 -1.30062,-0.10014 -1.18921,-0.633143 -1.18921,5.689623 v 5.339165 l 0.936,-0.04105 c 0.78676,-0.0345 1.01882,-0.08371 1.45542,-0.308595 z M 23.04,35.195196 c 0,-0.289475 0.193589,-0.34418 1.224,-0.345886 l 0.792,-0.0013 V 26.239216 17.630432 L 24.429914,16.005006 C 23.644595,13.966185 23.672276,14.016 23.324623,14.016 23.085025,14.016 23.04,13.978034 23.04,13.776 v -0.24 h 2.355012 c 2.030146,0 2.362825,0.02036 2.411644,0.147576 0.03115,0.08117 -0.01341,0.224967 -0.09901,0.319559 -0.0856,0.09459 -0.155643,0.224269 -0.155643,0.288174 0,0.179993 5.784114,15.18069 5.853518,15.18069 0.03375,0 1.107502,-2.676432 2.386108,-5.947627 L 38.116365,17.576745 38.090182,15.820373 38.064,14.064 37.794231,14.033067 c -0.215113,-0.02467 -0.263737,-0.07329 -0.24,-0.24 0.02953,-0.207379 0.04859,-0.209275 2.360125,-0.234779 2.10704,-0.02325 2.336279,-0.01028 2.392161,0.13535 0.04195,0.109308 -0.02822,0.232841 -0.218355,0.384441 L 41.808,14.301458 41.78028,24.214729 c -0.01525,5.452298 -0.0021,10.055659 0.02918,10.229688 0.03805,0.211627 0.136118,0.352514 0.296112,0.425412 0.162105,0.07386 0.230063,0.173009 0.210821,0.307583 -0.02783,0.194603 -0.07555,0.198587 -2.37908,0.198587 -2.189794,0 -2.352969,-0.01186 -2.38406,-0.173297 -0.02324,-0.120682 0.05651,-0.207226 0.262686,-0.285046 L 38.112,34.805905 v -7.726153 c 0,-4.327864 -0.03637,-7.686039 -0.08268,-7.634952 -0.08411,0.09277 -4.46663,11.241374 -5.073824,12.907199 -0.275349,0.755413 -0.325619,1.009264 -0.292785,1.478483 0.03297,0.4712 0.08374,0.604414 0.30182,0.792 0.144199,0.124035 0.384081,0.225517 0.533072,0.225517 0.351962,0 0.558893,0.228981 0.390401,0.432 -0.156155,0.188156 -1.845457,0.208514 -1.991416,0.024 -0.05221,-0.066 -1.4507,-3.650601 -3.107755,-7.965781 -1.657056,-4.315179 -3.046849,-7.846779 -3.08843,-7.848 -0.04158,-0.0012 -0.06318,3.097382 -0.048,6.885782 0.02167,5.407737 0.05454,6.949892 0.152966,7.175999 0.349755,0.80349 0.9161,1.296 1.490286,1.296 0.29189,0 0.557055,0.239186 0.481999,0.434779 -0.04565,0.118954 -0.423417,0.141221 -2.395921,0.141221 H 23.04 Z m 23.299798,0.10178 c -0.06793,-0.177024 0.03331,-0.313715 0.292202,-0.394507 l 0.216,-0.06741 -0.0052,-3.66553 -0.0052,-3.665531 -1.556714,-6.719388 -1.556714,-6.719388 -0.286087,-0.04955 c -0.205017,-0.03551 -0.286087,-0.103696 -0.286087,-0.240612 0,-0.185541 0.06787,-0.191057 2.350685,-0.191057 2.175653,0 2.353131,0.0127 2.383525,0.170519 0.01806,0.09379 -0.06194,0.247269 -0.17779,0.341075 l -0.210627,0.170557 1.373547,6.019682 c 0.755449,3.310824 1.402946,5.986941 1.43888,5.946924 0.06017,-0.067 3.104753,-11.542475 3.177582,-11.976757 0.02998,-0.178795 -0.03383,-0.195302 -0.927802,-0.24 -0.88,-0.044 -0.96,-0.064 -0.96,-0.24 0,-0.186776 0.064,-0.192 2.352,-0.192 2.288,0 2.352,0.0052 2.352,0.192 0,0.146273 -0.09145,0.211614 -0.384,0.274361 -0.997926,0.214037 -1.680176,0.763865 -2.10154,1.693639 -0.131605,0.2904 -0.911398,3.071065 -1.732872,6.179256 L 50.592,27.574511 v 3.538532 3.53853 l 0.244816,0.16041 c 0.158736,0.104008 0.234685,0.231367 0.216,0.362213 -0.02826,0.197879 -0.07387,0.202303 -2.3459,0.227485 -1.881303,0.02085 -2.326494,0.0012 -2.367118,-0.104705 z M 61.536,35.272422 c -0.938553,-0.246977 -1.727462,-0.712674 -2.507897,-1.480423 -1.523409,-1.498646 -2.012889,-3.446831 -1.277645,-5.085171 0.771347,-1.718792 2.948248,-2.116745 4.248721,-0.776695 1.333591,1.374174 0.648284,3.608918 -1.2575,4.100636 -0.610022,0.157394 -0.77426,0.347098 -0.690805,0.797913 0.207432,1.120529 1.373076,2.016462 2.625988,2.018379 0.828431,0.0013 1.284394,-0.152585 1.8017,-0.607935 1.416323,-1.246697 1.766819,-3.523898 0.835713,-5.42969 -0.241871,-0.495061 -0.554469,-0.921014 -1.030717,-1.404477 -0.638291,-0.647961 -1.132392,-0.998136 -3.608244,-2.557204 -1.054558,-0.664064 -2.461157,-2.053757 -2.801426,-2.767755 -0.705118,-1.479574 -0.61878,-3.466747 0.224964,-5.177822 0.776915,-1.575546 2.33138,-2.821517 4.013148,-3.216709 0.946819,-0.22249 2.310389,-0.191426 3.077551,0.07011 2.800766,0.954818 4.425492,3.730044 3.621761,6.186405 -0.493809,1.509178 -1.974294,2.214366 -3.472249,1.65391 -0.578371,-0.216397 -1.130636,-0.747145 -1.380271,-1.326497 -0.08383,-0.19455 -0.152273,-0.628344 -0.154436,-0.978815 -0.0033,-0.529125 0.04304,-0.712685 0.290629,-1.152 0.354168,-0.628431 0.960794,-1.093135 1.660859,-1.272295 0.574843,-0.147113 0.718666,-0.323862 0.623263,-0.765955 -0.257752,-1.194407 -1.331323,-2.003914 -2.673029,-2.015547 -0.833922,-0.0072 -1.236611,0.152746 -1.865708,0.741192 -1.382721,1.293373 -1.614257,3.975946 -0.493867,5.721923 0.63754,0.99352 1.497539,1.674101 4.483471,3.5481 0.470839,0.295502 1.179662,0.866178 1.609732,1.296 1.209371,1.20867 1.581142,2.07863 1.583154,3.704643 0.0044,3.553738 -2.729596,6.349125 -6.182216,6.321039 C 62.41349,35.414206 61.8264,35.34884 61.536,35.272422 Z m 8.707798,0.02455 c -0.06796,-0.177108 0.03334,-0.313721 0.292629,-0.394643 l 0.216428,-0.06754 -0.02443,-10.384084 C 70.704202,14.152488 70.702412,14.066322 70.512,14.030206 70.282428,13.986662 70.175428,13.841193 70.243153,13.664705 70.282578,13.561965 70.76497,13.536 72.634271,13.536 H 74.976 v 0.22459 c 0,0.146404 -0.08355,0.26266 -0.24,0.333943 l -0.24,0.10935 v 4.39063 c 0,3.738467 0.01969,4.369749 0.132574,4.250058 0.23454,-0.248688 5.915426,-8.636779 5.915426,-8.734399 0,-0.05464 -0.365494,-0.09417 -0.870677,-0.09417 -0.848014,0 -0.869878,-0.0056 -0.84,-0.216 l 0.03068,-0.216 2.376,-0.02568 c 1.980807,-0.02141 2.376,-0.0034 2.376,0.108245 0,0.204472 -0.20161,0.329258 -0.719467,0.445313 -0.259389,0.05813 -0.720293,0.238234 -1.024232,0.400231 -1.097675,0.585056 -1.571891,1.136596 -3.831316,4.456038 l -2.117032,3.110248 3.237223,6.024801 c 1.780473,3.31364 3.343713,6.169305 3.473867,6.345923 0.130155,0.176617 0.357451,0.363236 0.505104,0.414708 0.284755,0.09927 0.440523,0.345899 0.304422,0.482 -0.04495,0.04495 -1.114997,0.07013 -2.377883,0.05595 -2.135276,-0.02397 -2.298517,-0.03806 -2.329856,-0.201028 -0.01853,-0.09639 0.03598,-0.226202 0.121155,-0.288481 0.136306,-0.09967 -0.112773,-0.612431 -2.079566,-4.281035 L 74.544,26.463432 74.51732,30.439715 c -0.01468,2.186957 -0.0043,4.068322 0.02295,4.180813 0.0273,0.112491 0.139922,0.22814 0.250277,0.256999 0.144509,0.03779 0.191805,0.11486 0.169051,0.275471 l -0.03159,0.223001 -2.317084,0.02568 c -1.881303,0.02085 -2.326494,0.0012 -2.367118,-0.104705 z M 84.544,35.359999 C 84.410136,35.226135 84.48906,35.031755 84.72,34.926532 L 84.96,34.81718 V 24.462214 14.107248 l -0.246985,-0.0939 c -0.159926,-0.0608 -0.235617,-0.153024 -0.214734,-0.261624 0.02947,-0.153276 0.232833,-0.169935 2.361342,-0.193432 2.09747,-0.02315 2.335179,-0.0098 2.390331,0.133882 0.03843,0.100155 -0.0071,0.206836 -0.122356,0.286438 -0.100978,0.06976 -0.237598,0.17322 -0.303598,0.229902 -0.09458,0.08123 -0.120183,2.252534 -0.120865,10.251275 l -8.64e-4,10.148214 0.304423,0.250224 c 0.204875,0.168401 0.284624,0.301818 0.243878,0.408 -0.05383,0.14027 -0.314756,0.157776 -2.351557,0.157776 -1.260057,0 -2.319813,-0.0288 -2.355013,-0.064 z m 5.559769,-0.09437 c -0.109019,-0.284099 0.122682,-0.368842 1.100834,-0.402625 l 0.955397,-0.033 -0.0048,-8.607005 -0.0048,-8.607003 -0.691418,-1.776 c -0.68302,-1.754429 -0.695105,-1.776358 -0.995002,-1.805473 -0.293796,-0.02852 -0.473275,-0.232069 -0.362572,-0.41119 0.03004,-0.0486 1.096007,-0.08734 2.403324,-0.08734 2.025048,0 2.357165,0.02037 2.405978,0.147576 0.03115,0.08117 -0.01341,0.224967 -0.09901,0.319559 -0.0856,0.09459 -0.156131,0.233382 -0.156727,0.308424 -5.76e-4,0.07504 1.306205,3.527641 2.903999,7.672441 l 2.905082,7.535999 0.0248,-7.631999 c 0.0136,-4.1976 0.004,-7.686 -0.021,-7.752 -0.0324,-0.08486 -0.32477,-0.12 -0.998531,-0.12 -0.800793,0 -0.962544,-0.02553 -1.014163,-0.160053 -0.03378,-0.08803 -0.02464,-0.196829 0.0203,-0.241778 0.04496,-0.04495 1.115568,-0.07013 2.379154,-0.05595 2.22482,0.02496 2.29742,0.03185 2.29742,0.217779 0,0.14914 -0.10136,0.217018 -0.45405,0.304074 -0.64685,0.159662 -0.98311,0.437161 -1.29203,1.066242 L 101.136,15.696 v 8.790788 8.790787 l 0.288,0.559898 c 0.33972,0.660432 0.63924,0.909087 1.18289,0.982007 0.43446,0.05827 0.64603,0.232149 0.55887,0.459297 -0.0476,0.12403 -0.3909,0.145222 -2.35247,0.145222 -2.085431,0 -2.302592,-0.01522 -2.36024,-0.165467 -0.03836,-0.09995 -0.0044,-0.208672 0.08573,-0.274583 0.08207,-0.06001 0.149222,-0.155914 0.149222,-0.213112 0,-0.159215 -5.764623,-15.125675 -5.867099,-15.232511 -0.05582,-0.0582 -0.07982,2.522949 -0.06338,6.816 l 0.02647,6.909673 0.269927,0.549684 c 0.282137,0.574547 0.620004,0.888098 1.055928,0.979933 0.14198,0.02991 0.368949,0.07751 0.504377,0.105777 0.187983,0.03923 0.239081,0.101688 0.216,0.264 -0.03014,0.211946 -0.03743,0.212686 -2.347316,0.238288 -2.098372,0.02326 -2.322942,0.01042 -2.379147,-0.136053 z m 13.701621,4.8e-4 c -0.11418,-0.297537 0.23551,-0.418111 1.21296,-0.418222 l 0.91765,-9.6e-5 1.764,-9.080262 c 0.9702,-4.994143 1.76396,-9.173696 1.76391,-9.287895 0,-0.311477 -0.42739,-2.206573 -0.5271,-2.33787 -0.0477,-0.06283 -0.18082,-0.12763 -0.29578,-0.144 -0.13511,-0.01924 -0.20903,-0.09766 -0.20903,-0.221763 0,-0.186021 0.0726,-0.192801 2.33035,-0.217712 2.04367,-0.02255 2.33747,-0.0072 2.38816,0.124885 0.0331,0.08633 -0.0293,0.243328 -0.14637,0.367898 -0.11228,0.119518 -0.20414,0.279797 -0.20414,0.356179 0,0.161282 4.46899,19.937498 4.55409,20.152749 0.0313,0.0792 0.18904,0.219429 0.35052,0.311617 0.18699,0.106746 0.28184,0.228768 0.26119,0.336 -0.0299,0.15504 -0.21859,0.168383 -2.3818,0.168383 -2.12724,0 -2.35232,-0.0153 -2.38054,-0.161864 -0.018,-0.0936 0.0664,-0.215062 0.20015,-0.288 L 113.63494,34.8 112.86753,31.344 c -0.42209,-1.9008 -0.81515,-3.487738 -0.87348,-3.52653 -0.0583,-0.03879 -0.98177,-0.07119 -2.0521,-0.072 -1.92767,-0.0015 -1.94693,5.76e-4 -2.0376,0.21453 -0.0504,0.1188 -0.29114,1.2528 -0.5351,2.52 -0.47119,2.447525 -0.49839,2.988476 -0.18173,3.613198 0.25508,0.50319 0.43171,0.657049 0.82686,0.720238 0.40739,0.06514 0.61174,0.245469 0.52738,0.465342 -0.0476,0.124062 -0.39232,0.145222 -2.36576,0.145222 -2.05507,0 -2.31671,-0.01743 -2.37061,-0.157882 z M 111.83501,26.808 c -1.56946,-7.011099 -1.93585,-8.620839 -1.96996,-8.654951 -0.0226,-0.02258 -0.0555,-0.02305 -0.0732,-10e-4 -0.05,0.06227 -1.69921,8.658791 -1.69744,8.848 0.001,0.154318 0.15711,0.168 1.91137,0.168 h 1.90979 l -0.0806,-0.36 z m 10.97842,8.458224 c -0.0408,-0.106213 0.0391,-0.23955 0.24419,-0.408 l 0.30473,-0.250224 -0.0252,-10.271999 -0.0252,-10.272 -0.72,-0.03028 c -1.19723,-0.05035 -1.69711,0.212485 -2.15589,1.133538 -0.27595,0.553997 -0.38015,0.990323 -0.63065,2.640739 -0.23473,1.546527 -0.44362,2.123755 -0.80102,2.213456 -0.13284,0.03334 -0.28718,0.0324 -0.34299,-0.0021 -0.1094,-0.06762 -0.15022,-6.05258 -0.0432,-6.33152 0.0524,-0.136417 0.72449,-0.151852 6.61281,-0.151852 h 6.55452 l 0.0579,0.216 c 0.0763,0.284754 0.0751,5.815778 -0.001,6.101165 -0.0456,0.170234 -0.11659,0.21445 -0.30828,0.192 -0.334,-0.03911 -0.64635,-0.608876 -0.77797,-1.419141 -0.0559,-0.344313 -0.1671,-1.036424 -0.24702,-1.538024 -0.27233,-1.709154 -0.73133,-2.639392 -1.45061,-2.939926 -0.37091,-0.154981 -1.50104,-0.175874 -1.76857,-0.0327 -0.1818,0.0973 -0.18569,0.313345 -0.18569,10.313143 0,8.849674 0.0188,10.230708 0.14067,10.340622 0.0774,0.06977 0.20549,0.181179 0.28472,0.247572 0.0792,0.06639 0.11929,0.185192 0.0891,0.264 -0.0467,0.121635 -0.40926,0.143285 -2.39973,0.143285 -2.08664,0 -2.3514,-0.01737 -2.40528,-0.157776 z m 14.09445,0.0063 c -1.66369,-0.447471 -3.09642,-1.77862 -3.69053,-3.428901 -0.0792,-0.219916 -0.12482,-2.797624 -0.16005,-9.039337 l -0.0493,-8.731693 -0.24,-0.05664 c -0.15484,-0.03654 -0.24,-0.123229 -0.24,-0.244309 0,-0.18037 0.0907,-0.188673 2.33035,-0.213384 2.10705,-0.02325 2.33629,-0.01028 2.39217,0.13535 0.0419,0.109305 -0.0282,0.232861 -0.21836,0.384491 l -0.28016,0.223428 v 8.377221 8.377221 l 0.26686,0.543412 c 0.29334,0.597343 0.79828,1.106077 1.43281,1.443593 0.34985,0.186087 0.5578,0.219447 1.37233,0.220157 0.83161,7.68e-4 1.02184,-0.03075 1.42241,-0.235379 0.56481,-0.288528 1.16419,-0.92147 1.44214,-1.522918 L 142.896,31.055999 V 22.56 14.064 l -1.008,-0.048 c -0.928,-0.04419 -1.008,-0.06324 -1.008,-0.24 0,-0.186776 0.064,-0.192 2.352,-0.192 2.288,0 2.352,0.0052 2.352,0.192 0,0.148397 -0.10037,0.216777 -0.44195,0.301101 -0.60128,0.148437 -0.80317,0.269001 -1.09825,0.655859 -0.52861,0.693062 -0.5238,0.613604 -0.5238,8.645194 0,4.525953 -0.0373,7.612971 -0.0959,7.928742 -0.33664,1.815472 -2.00331,3.534212 -3.84906,3.969284 -0.76683,0.180756 -1.9878,0.179093 -2.66718,-0.0036 z m 22.10102,0.0027 c -0.11045,-0.287806 0.14774,-0.378591 1.17168,-0.411998 0.55188,-0.01801 1.00342,-0.05212 1.00342,-0.07581 0,-0.02369 0.80003,-4.154851 1.77782,-9.180362 l 1.77784,-9.137291 -0.26819,-1.2029 c -0.25621,-1.149193 -0.2795,-1.204222 -0.5217,-1.232494 -0.26276,-0.03067 -0.43321,-0.27737 -0.29034,-0.420238 0.045,-0.04495 1.115,-0.07013 2.37789,-0.05595 2.1117,0.02371 2.29879,0.03948 2.32894,0.196297 0.018,0.09379 -0.0634,0.24838 -0.18088,0.343543 l -0.21368,0.173024 2.22767,9.880457 c 1.22522,5.434252 2.26901,10.010057 2.31954,10.168457 0.0505,0.1584 0.22785,0.400601 0.39403,0.538224 0.20293,0.168039 0.28229,0.302045 0.24163,0.408 -0.0538,0.140129 -0.31105,0.157776 -2.30036,0.157776 -1.52739,0 -2.27406,-0.03426 -2.34751,-0.107699 -0.13195,-0.131952 -0.0532,-0.372301 0.12191,-0.372301 0.0704,0 0.1515,-0.03793 0.18014,-0.08428 0.0635,-0.102732 -1.44888,-6.930247 -1.55966,-7.041036 -0.0433,-0.04328 -0.98283,-0.06699 -2.08789,-0.05269 l -2.0092,0.02599 -0.50064,2.448 c -0.54068,2.643796 -0.56884,3.154969 -0.21226,3.853923 0.21283,0.417166 0.61072,0.753498 0.89385,0.755547 0.2965,0.0022 0.46683,0.140109 0.42723,0.346034 -0.0327,0.169891 -0.17155,0.182007 -2.3638,0.206208 -2.05257,0.02266 -2.33602,0.0077 -2.38748,-0.126452 z m 8.1271,-8.139921 c 0,-0.107843 -2.02481,-9.032159 -2.05646,-9.063807 -0.0213,-0.02132 -0.0855,0.19146 -0.14263,0.472847 -0.32938,1.622413 -1.64091,8.431538 -1.64091,8.519162 0,0.07179 0.60043,0.104451 1.92,0.104451 1.056,0 1.92,-0.01469 1.92,-0.03265 z"
       id="path16" />
    <path
       style="fill:#000000;stroke-width:0.096"
       d="M 2.4884496,53.253296 C 2.2763823,53.089161 0.192,49.952309 0.192,49.797299 0.192,49.727504 0.14525318,49.623652 0.08811818,49.566517 -0.10485323,49.373546 0.2021211,49.089347 1.2408684,48.499291 7.0962632,45.173165 12.401424,43.50364 21.552,42.107413 c 2.289894,-0.3494 8.205946,-1.129248 11.712,-1.543865 7.747071,-0.916148 17.27706,-1.293041 55.872,-2.209636 25.14408,-0.597149 35.5021,-0.564077 45.504,0.14529 7.22503,0.512422 11.123,1.088992 22.704,3.358275 8.85827,1.735765 10.7413,2.011898 13.728,2.013108 3.15403,0.0013 5.30925,-0.625136 7.29252,-2.119569 3.32623,-2.506397 5.28528,-6.897889 6.12005,-13.719017 0.242,-1.977441 0.24101,-9.03157 -0.002,-11.615999 -0.31907,-3.398635 -1.14975,-9.5528804 -1.31295,-9.7273038 -0.0408,-0.043617 -0.63035,0.072957 -1.3101,0.2590532 -6.46992,1.7713003 -12.90935,2.8992738 -19.76389,3.4619766 -4.00522,0.328795 -5.92105,0.389286 -12.288,0.387982 -8.09979,-0.0017 -9.62483,-0.100077 -16.32,-1.0532176 C 131.4816,9.458854 129.3216,9.1586117 128.688,9.077285 123.22469,8.376033 117.32056,8.1040966 109.44,8.1907467 100.30564,8.2911828 96.393341,8.6070954 85.536,10.120958 78.659451,11.079771 76.734984,11.275129 72.688197,11.425179 64.949934,11.712104 56.564353,10.757167 45.168,8.2912209 39.038926,6.9650101 37.109989,6.6209898 34.704,6.4249959 28.52123,5.9213427 22.362985,8.2718141 16.70194,13.296 14.327429,15.403381 11.571346,18.750666 9.6543197,21.855391 9.3556786,22.339057 9.0554874,22.756214 8.9872285,22.782407 8.8003102,22.854134 4.3733836,20.195949 4.3414879,19.992832 4.3115241,19.802019 5.5856695,17.762855 6.7263854,16.176 8.3911746,13.860104 9.9170563,12.079688 11.869968,10.174407 14.743782,7.3706868 17.510004,5.3954595 20.88,3.7407736 22.978682,2.7103095 24.782764,2.0303864 26.719115,1.5401258 29.106324,0.93571288 30.118091,0.81914462 32.976,0.81925384 36.609613,0.81939304 37.994283,1.0221425 45.770715,2.692716 52.965269,4.2382872 57.038996,4.9253905 61.943289,5.4204948 65.570151,5.7866384 68.018644,5.8892055 71.616,5.8256838 75.656576,5.7543357 78.293899,5.5086107 84.209225,4.6523472 96.09695,2.9315584 101.89548,2.5270674 113.34562,2.6198653 c 8.89522,0.072092 11.98814,0.2934179 19.75838,1.4138882 7.20654,1.0391853 8.97022,1.1702091 15.6,1.1589258 13.47654,-0.022936 18.07552,-0.5926663 31.776,-3.9364707 2.3496,-0.57345467 4.54559,-1.09313168 4.87998,-1.15483782 0.59148,-0.10914908 0.61396,-0.10573583 0.82854,0.12580548 0.68968,0.74417543 1.53661,2.63405174 2.01246,4.49072854 0.59433,2.318885 1.46426,8.1134652 1.82108,12.1300952 0.43619,4.909913 0.45575,10.189326 0.0504,13.583999 -0.14566,1.219699 -0.61082,3.448707 -0.99598,4.772628 -1.75511,6.033028 -5.35533,10.818146 -9.74875,12.957213 -3.71162,1.807112 -7.85122,2.059579 -14.49569,0.884065 -0.6072,-0.107424 -3.90771,-0.754575 -7.33446,-1.438112 -6.90117,-1.376582 -11.14633,-2.147378 -14.20545,-2.57929 C 132.1673,43.45782 119.4589,43.211787 88.56,43.9689 c -23.727799,0.581401 -29.886391,0.755313 -39.216,1.107425 -6.129602,0.231339 -10.421454,0.501555 -13.776,0.86734 -2.266694,0.247164 -9.658015,1.180497 -12.144,1.533474 -9.388568,1.33305 -14.9951222,2.847106 -19.248,5.197941 -0.4752,0.262673 -0.9504,0.501336 -1.056,0.530362 -0.1056,0.02903 -0.2568,0.07806 -0.336,0.108962 -0.0792,0.0309 -0.2121977,0.0034 -0.2955504,-0.06111 z M 8.8856983,43.22772 C 8.5500531,43.038264 8.3901452,42.879216 8.3387023,42.683666 8.1491315,41.963049 7.9681717,39.963617 7.9697587,38.607192 c 0.00262,-2.238251 0.3297364,-4.151249 1.0026968,-5.863813 0.3380815,-0.860357 0.217728,-0.857357 -0.1749695,0.0044 -0.7223371,1.585064 -1.1024021,2.911037 -1.361884,4.751347 -0.157219,1.115036 -0.2016893,3.515798 -0.088975,4.803347 0.063741,0.728114 0.054802,0.789764 -0.1287546,0.888 -0.7291355,0.39018 -2.0512393,-0.26351 -3.1870258,-1.575809 -0.557419,-0.644048 -0.7418541,-1.045436 -0.5735516,-1.248228 0.082549,-0.09947 0.2081994,-0.134768 0.3515815,-0.09878 0.334258,0.08389 0.2777581,-0.09118 -0.2420506,-0.750046 -0.5932021,-0.751888 -0.925548,-1.328326 -1.1618677,-2.0152 -0.3957015,-1.150127 -0.449552,-2.120347 -0.1246072,-2.24504 0.077578,-0.02977 0.2617007,0.01714 0.4091619,0.104251 0.1474611,0.08711 0.2938458,0.158377 0.3252991,0.158377 0.1244176,0 0.039902,-0.784992 -0.2259118,-2.098301 -0.1534325,-0.758066 -0.255881,-1.438466 -0.2276633,-1.512 0.086439,-0.225257 0.2867749,-0.150358 0.5819296,0.21756 0.1655392,0.20635 0.3272769,0.323146 0.3920502,0.283114 0.1826959,-0.112912 0.3853167,-0.978321 0.6256156,-2.672052 0.2112821,-1.489205 0.3319513,-1.898318 0.5599162,-1.898318 0.049082,0 0.1344001,0.12955 0.1895969,0.287886 0.055197,0.158338 0.1324782,0.268035 0.1717369,0.243772 0.039259,-0.02426 0.1491971,-0.337412 0.2443077,-0.695887 0.095111,-0.358473 0.2115017,-0.727371 0.2586469,-0.819771 0.1372985,-0.269091 0.3654954,-0.19496 0.51715,0.168 0.077214,0.1848 0.1801178,0.336 0.2286742,0.336 0.1515921,0 0.7170521,-0.772255 1.3882865,-1.895999 0.6987702,-1.169844 0.9967801,-1.388537 0.9273136,-0.680505 -0.028986,0.295441 0.149976,0.265423 0.6730865,-0.112901 C 9.894624,24.254688 10.117673,24.20401 10.264044,24.456 c 0.08925,0.153648 0.116307,0.14622 0.31677,-0.08696 0.392685,-0.456769 0.799137,-0.568479 1.276701,-0.350886 0.154392,0.07035 0.27126,0.217718 0.304517,0.384 0.04608,0.230407 0.10029,0.269843 0.370929,0.269843 0.214939,0 0.326951,0.0499 0.348,0.155016 0.02512,0.125448 0.177532,0.158185 0.799039,0.17163 0.57931,0.01253 0.865516,0.06788 1.164907,0.225276 0.694716,0.365225 1.370469,1.19391 1.243466,1.524874 -0.04291,0.111811 -0.191821,0.128155 -0.750945,0.08241 -0.797491,-0.06524 -1.065953,0.02998 -0.808997,0.286935 0.08776,0.08776 0.159569,0.222671 0.159569,0.299795 0,0.297255 -0.278515,0.784721 -0.58572,1.025145 l -0.320916,0.251155 0.213317,0.227067 c 0.303072,0.322605 0.267013,0.631619 -0.170681,1.462692 -0.2112,0.401017 -0.384,0.767662 -0.384,0.814766 0,0.0471 0.162,0.09905 0.36,0.115439 0.308743,0.02555 0.364188,0.06596 0.389414,0.283824 0.01618,0.139716 -0.08327,0.521763 -0.221002,0.848993 -0.137729,0.32723 -0.234534,0.642613 -0.215122,0.70085 0.01941,0.05824 0.178688,0.108191 0.353944,0.111008 0.503483,0.0081 0.575516,0.22956 0.306357,0.94191 -0.379032,1.003137 -0.37895,1.042435 0.0021,1.01677 0.180157,-0.01213 0.379921,0.0103 0.44392,0.04986 0.251101,0.155189 0.107438,0.781212 -0.513646,2.238248 -0.700514,1.643373 -0.757188,2.018226 -0.297761,1.969412 0.366468,-0.03894 0.571861,0.143926 0.496942,0.442429 -0.09259,0.368923 -0.727872,1.241079 -1.531791,2.102956 -0.987337,1.058517 -1.647926,1.395746 -2.825206,1.44226 -0.7607364,0.03006 -0.8667993,0.01092 -1.3024779,-0.235 z M 157.00674,36.499317 c -1.13056,-0.39094 -1.80765,-1.001183 -2.18149,-1.966124 -0.16437,-0.424269 -0.20559,-0.840083 -0.26853,-2.709194 -0.0828,-2.459502 -0.22536,-3.245537 -0.77585,-4.27834 -0.56107,-1.052674 -1.61152,-1.772706 -2.67687,-1.834857 l -0.528,-0.0308 -0.025,4.444533 -0.025,4.444533 0.30211,0.275943 c 0.19485,0.177966 0.28124,0.330353 0.24332,0.429179 -0.052,0.135485 -0.32859,0.150257 -2.38789,0.127523 -2.12432,-0.02345 -2.33191,-0.04039 -2.36119,-0.192656 -0.0202,-0.104789 0.0598,-0.208814 0.21473,-0.279409 L 146.784,34.81718 V 24.423267 14.029353 l -0.216,-0.03068 c -0.14177,-0.02014 -0.216,-0.09666 -0.216,-0.222677 0,-0.188284 0.0724,-0.192487 3.73949,-0.217146 4.09615,-0.02754 4.20463,-0.0162 5.34304,0.558463 1.32491,0.66881 2.44456,1.998004 2.92981,3.47809 0.22125,0.67488 0.25901,0.954708 0.26189,1.940593 0.003,1.045466 -0.024,1.22978 -0.29237,1.993076 -0.58731,1.670368 -1.55966,2.839603 -2.93311,3.527035 -0.42183,0.211138 -0.82678,0.383889 -0.89987,0.383889 -0.26097,0 -0.11841,0.149016 0.45909,0.479877 0.70629,0.404639 1.66437,1.412055 2.07098,2.177618 0.62018,1.167647 0.71452,1.622315 0.79752,3.843446 0.0502,1.342407 0.12665,2.210712 0.22428,2.546577 0.18814,0.647169 0.70039,1.249286 1.25787,1.47855 0.51625,0.212307 0.56775,0.448307 0.13106,0.60054 -0.47017,0.1639 -1.87893,0.124969 -2.43494,-0.06729 z m -4.08732,-11.770632 c 1.73598,-0.894185 2.71773,-3.365483 2.41863,-6.088311 -0.32752,-2.98158 -1.46589,-4.424914 -3.62084,-4.590832 -1.30062,-0.10014 -1.18921,-0.633143 -1.18921,5.689623 v 5.339165 l 0.936,-0.04105 c 0.78676,-0.0345 1.01882,-0.08371 1.45542,-0.308595 z M 23.04,35.195196 c 0,-0.289475 0.193589,-0.34418 1.224,-0.345886 l 0.792,-0.0013 V 26.239216 17.630432 L 24.429914,16.005006 C 23.644595,13.966185 23.672276,14.016 23.324623,14.016 23.085025,14.016 23.04,13.978034 23.04,13.776 v -0.24 h 2.355012 c 2.030146,0 2.362825,0.02036 2.411644,0.147576 0.03115,0.08117 -0.01341,0.224967 -0.09901,0.319559 -0.0856,0.09459 -0.155643,0.224269 -0.155643,0.288174 0,0.179993 5.784114,15.18069 5.853518,15.18069 0.03375,0 1.107502,-2.676432 2.386108,-5.947627 L 38.116365,17.576745 38.090182,15.820373 38.064,14.064 37.794231,14.033067 c -0.215113,-0.02467 -0.263737,-0.07329 -0.24,-0.24 0.02953,-0.207379 0.04859,-0.209275 2.360125,-0.234779 2.10704,-0.02325 2.336279,-0.01028 2.392161,0.13535 0.04195,0.109308 -0.02822,0.232841 -0.218355,0.384441 L 41.808,14.301458 41.78028,24.214729 c -0.01525,5.452298 -0.0021,10.055659 0.02918,10.229688 0.03805,0.211627 0.136118,0.352514 0.296112,0.425412 0.162105,0.07386 0.230063,0.173009 0.210821,0.307583 -0.02783,0.194603 -0.07555,0.198587 -2.37908,0.198587 -2.189794,0 -2.352969,-0.01186 -2.38406,-0.173297 -0.02324,-0.120682 0.05651,-0.207226 0.262686,-0.285046 L 38.112,34.805905 v -7.726153 c 0,-4.327864 -0.03637,-7.686039 -0.08268,-7.634952 -0.08411,0.09277 -4.46663,11.241374 -5.073824,12.907199 -0.275349,0.755413 -0.325619,1.009264 -0.292785,1.478483 0.03297,0.4712 0.08374,0.604414 0.30182,0.792 0.144199,0.124035 0.384081,0.225517 0.533072,0.225517 0.351962,0 0.558893,0.228981 0.390401,0.432 -0.156155,0.188156 -1.845457,0.208514 -1.991416,0.024 -0.05221,-0.066 -1.4507,-3.650601 -3.107755,-7.965781 -1.657056,-4.315179 -3.046849,-7.846779 -3.08843,-7.848 -0.04158,-0.0012 -0.06318,3.097382 -0.048,6.885782 0.02167,5.407737 0.05454,6.949892 0.152966,7.175999 0.349755,0.80349 0.9161,1.296 1.490286,1.296 0.29189,0 0.557055,0.239186 0.481999,0.434779 -0.04565,0.118954 -0.423417,0.141221 -2.395921,0.141221 H 23.04 Z m 23.299798,0.10178 c -0.06793,-0.177024 0.03331,-0.313715 0.292202,-0.394507 l 0.216,-0.06741 -0.0052,-3.66553 -0.0052,-3.665531 -1.556714,-6.719388 -1.556714,-6.719388 -0.286087,-0.04955 c -0.205017,-0.03551 -0.286087,-0.103696 -0.286087,-0.240612 0,-0.185541 0.06787,-0.191057 2.350685,-0.191057 2.175653,0 2.353131,0.0127 2.383525,0.170519 0.01806,0.09379 -0.06194,0.247269 -0.17779,0.341075 l -0.210627,0.170557 1.373547,6.019682 c 0.755449,3.310824 1.402946,5.986941 1.43888,5.946924 0.06017,-0.067 3.104753,-11.542475 3.177582,-11.976757 0.02998,-0.178795 -0.03383,-0.195302 -0.927802,-0.24 -0.88,-0.044 -0.96,-0.064 -0.96,-0.24 0,-0.186776 0.064,-0.192 2.352,-0.192 2.288,0 2.352,0.0052 2.352,0.192 0,0.146273 -0.09145,0.211614 -0.384,0.274361 -0.997926,0.214037 -1.680176,0.763865 -2.10154,1.693639 -0.131605,0.2904 -0.911398,3.071065 -1.732872,6.179256 L 50.592,27.574511 v 3.538532 3.53853 l 0.244816,0.16041 c 0.158736,0.104008 0.234685,0.231367 0.216,0.362213 -0.02826,0.197879 -0.07387,0.202303 -2.3459,0.227485 -1.881303,0.02085 -2.326494,0.0012 -2.367118,-0.104705 z M 61.536,35.272422 c -0.938553,-0.246977 -1.727462,-0.712674 -2.507897,-1.480423 -1.523409,-1.498646 -2.012889,-3.446831 -1.277645,-5.085171 0.771347,-1.718792 2.948248,-2.116745 4.248721,-0.776695 1.333591,1.374174 0.648284,3.608918 -1.2575,4.100636 -0.610022,0.157394 -0.77426,0.347098 -0.690805,0.797913 0.207432,1.120529 1.373076,2.016462 2.625988,2.018379 0.828431,0.0013 1.284394,-0.152585 1.8017,-0.607935 1.416323,-1.246697 1.766819,-3.523898 0.835713,-5.42969 -0.241871,-0.495061 -0.554469,-0.921014 -1.030717,-1.404477 -0.638291,-0.647961 -1.132392,-0.998136 -3.608244,-2.557204 -1.054558,-0.664064 -2.461157,-2.053757 -2.801426,-2.767755 -0.705118,-1.479574 -0.61878,-3.466747 0.224964,-5.177822 0.776915,-1.575546 2.33138,-2.821517 4.013148,-3.216709 0.946819,-0.22249 2.310389,-0.191426 3.077551,0.07011 2.800766,0.954818 4.425492,3.730044 3.621761,6.186405 -0.493809,1.509178 -1.974294,2.214366 -3.472249,1.65391 -0.578371,-0.216397 -1.130636,-0.747145 -1.380271,-1.326497 -0.08383,-0.19455 -0.152273,-0.628344 -0.154436,-0.978815 -0.0033,-0.529125 0.04304,-0.712685 0.290629,-1.152 0.354168,-0.628431 0.960794,-1.093135 1.660859,-1.272295 0.574843,-0.147113 0.718666,-0.323862 0.623263,-0.765955 -0.257752,-1.194407 -1.331323,-2.003914 -2.673029,-2.015547 -0.833922,-0.0072 -1.236611,0.152746 -1.865708,0.741192 -1.382721,1.293373 -1.614257,3.975946 -0.493867,5.721923 0.63754,0.99352 1.497539,1.674101 4.483471,3.5481 0.470839,0.295502 1.179662,0.866178 1.609732,1.296 1.209371,1.20867 1.581142,2.07863 1.583154,3.704643 0.0044,3.553738 -2.729596,6.349125 -6.182216,6.321039 C 62.41349,35.414206 61.8264,35.34884 61.536,35.272422 Z m 8.707798,0.02455 c -0.06796,-0.177108 0.03334,-0.313721 0.292629,-0.394643 l 0.216428,-0.06754 -0.02443,-10.384084 C 70.704202,14.152488 70.702412,14.066322 70.512,14.030206 70.282428,13.986662 70.175428,13.841193 70.243153,13.664705 70.282578,13.561965 70.76497,13.536 72.634271,13.536 H 74.976 v 0.22459 c 0,0.146404 -0.08355,0.26266 -0.24,0.333943 l -0.24,0.10935 v 4.39063 c 0,3.738467 0.01969,4.369749 0.132574,4.250058 0.23454,-0.248688 5.915426,-8.636779 5.915426,-8.734399 0,-0.05464 -0.365494,-0.09417 -0.870677,-0.09417 -0.848014,0 -0.869878,-0.0056 -0.84,-0.216 l 0.03068,-0.216 2.376,-0.02568 c 1.980807,-0.02141 2.376,-0.0034 2.376,0.108245 0,0.204472 -0.20161,0.329258 -0.719467,0.445313 -0.259389,0.05813 -0.720293,0.238234 -1.024232,0.400231 -1.097675,0.585056 -1.571891,1.136596 -3.831316,4.456038 l -2.117032,3.110248 3.237223,6.024801 c 1.780473,3.31364 3.343713,6.169305 3.473867,6.345923 0.130155,0.176617 0.357451,0.363236 0.505104,0.414708 0.284755,0.09927 0.440523,0.345899 0.304422,0.482 -0.04495,0.04495 -1.114997,0.07013 -2.377883,0.05595 -2.135276,-0.02397 -2.298517,-0.03806 -2.329856,-0.201028 -0.01853,-0.09639 0.03598,-0.226202 0.121155,-0.288481 0.136306,-0.09967 -0.112773,-0.612431 -2.079566,-4.281035 L 74.544,26.463432 74.51732,30.439715 c -0.01468,2.186957 -0.0043,4.068322 0.02295,4.180813 0.0273,0.112491 0.139922,0.22814 0.250277,0.256999 0.144509,0.03779 0.191805,0.11486 0.169051,0.275471 l -0.03159,0.223001 -2.317084,0.02568 c -1.881303,0.02085 -2.326494,0.0012 -2.367118,-0.104705 z M 84.544,35.359999 C 84.410136,35.226135 84.48906,35.031755 84.72,34.926532 L 84.96,34.81718 V 24.462214 14.107248 l -0.246985,-0.0939 c -0.159926,-0.0608 -0.235617,-0.153024 -0.214734,-0.261624 0.02947,-0.153276 0.232833,-0.169935 2.361342,-0.193432 2.09747,-0.02315 2.335179,-0.0098 2.390331,0.133882 0.03843,0.100155 -0.0071,0.206836 -0.122356,0.286438 -0.100978,0.06976 -0.237598,0.17322 -0.303598,0.229902 -0.09458,0.08123 -0.120183,2.252534 -0.120865,10.251275 l -8.64e-4,10.148214 0.304423,0.250224 c 0.204875,0.168401 0.284624,0.301818 0.243878,0.408 -0.05383,0.14027 -0.314756,0.157776 -2.351557,0.157776 -1.260057,0 -2.319813,-0.0288 -2.355013,-0.064 z m 5.559769,-0.09437 c -0.109019,-0.284099 0.122682,-0.368842 1.100834,-0.402625 l 0.955397,-0.033 -0.0048,-8.607005 -0.0048,-8.607003 -0.691418,-1.776 c -0.68302,-1.754429 -0.695105,-1.776358 -0.995002,-1.805473 -0.293796,-0.02852 -0.473275,-0.232069 -0.362572,-0.41119 0.03004,-0.0486 1.096007,-0.08734 2.403324,-0.08734 2.025048,0 2.357165,0.02037 2.405978,0.147576 0.03115,0.08117 -0.01341,0.224967 -0.09901,0.319559 -0.0856,0.09459 -0.156131,0.233382 -0.156727,0.308424 -5.76e-4,0.07504 1.306205,3.527641 2.903999,7.672441 l 2.905082,7.535999 0.0248,-7.631999 c 0.0136,-4.1976 0.004,-7.686 -0.021,-7.752 -0.0324,-0.08486 -0.32477,-0.12 -0.998531,-0.12 -0.800793,0 -0.962544,-0.02553 -1.014163,-0.160053 -0.03378,-0.08803 -0.02464,-0.196829 0.0203,-0.241778 0.04496,-0.04495 1.115568,-0.07013 2.379154,-0.05595 2.22482,0.02496 2.29742,0.03185 2.29742,0.217779 0,0.14914 -0.10136,0.217018 -0.45405,0.304074 -0.64685,0.159662 -0.98311,0.437161 -1.29203,1.066242 L 101.136,15.696 v 8.790788 8.790787 l 0.288,0.559898 c 0.33972,0.660432 0.63924,0.909087 1.18289,0.982007 0.43446,0.05827 0.64603,0.232149 0.55887,0.459297 -0.0476,0.12403 -0.3909,0.145222 -2.35247,0.145222 -2.085431,0 -2.302592,-0.01522 -2.36024,-0.165467 -0.03836,-0.09995 -0.0044,-0.208672 0.08573,-0.274583 0.08207,-0.06001 0.149222,-0.155914 0.149222,-0.213112 0,-0.159215 -5.764623,-15.125675 -5.867099,-15.232511 -0.05582,-0.0582 -0.07982,2.522949 -0.06338,6.816 l 0.02647,6.909673 0.269927,0.549684 c 0.282137,0.574547 0.620004,0.888098 1.055928,0.979933 0.14198,0.02991 0.368949,0.07751 0.504377,0.105777 0.187983,0.03923 0.239081,0.101688 0.216,0.264 -0.03014,0.211946 -0.03743,0.212686 -2.347316,0.238288 -2.098372,0.02326 -2.322942,0.01042 -2.379147,-0.136053 z m 13.701621,4.8e-4 c -0.11418,-0.297537 0.23551,-0.418111 1.21296,-0.418222 l 0.91765,-9.6e-5 1.764,-9.080262 c 0.9702,-4.994143 1.76396,-9.173696 1.76391,-9.287895 0,-0.311477 -0.42739,-2.206573 -0.5271,-2.33787 -0.0477,-0.06283 -0.18082,-0.12763 -0.29578,-0.144 -0.13511,-0.01924 -0.20903,-0.09766 -0.20903,-0.221763 0,-0.186021 0.0726,-0.192801 2.33035,-0.217712 2.04367,-0.02255 2.33747,-0.0072 2.38816,0.124885 0.0331,0.08633 -0.0293,0.243328 -0.14637,0.367898 -0.11228,0.119518 -0.20414,0.279797 -0.20414,0.356179 0,0.161282 4.46899,19.937498 4.55409,20.152749 0.0313,0.0792 0.18904,0.219429 0.35052,0.311617 0.18699,0.106746 0.28184,0.228768 0.26119,0.336 -0.0299,0.15504 -0.21859,0.168383 -2.3818,0.168383 -2.12724,0 -2.35232,-0.0153 -2.38054,-0.161864 -0.018,-0.0936 0.0664,-0.215062 0.20015,-0.288 L 113.63494,34.8 112.86753,31.344 c -0.42209,-1.9008 -0.81515,-3.487738 -0.87348,-3.52653 -0.0583,-0.03879 -0.98177,-0.07119 -2.0521,-0.072 -1.92767,-0.0015 -1.94693,5.76e-4 -2.0376,0.21453 -0.0504,0.1188 -0.29114,1.2528 -0.5351,2.52 -0.47119,2.447525 -0.49839,2.988476 -0.18173,3.613198 0.25508,0.50319 0.43171,0.657049 0.82686,0.720238 0.40739,0.06514 0.61174,0.245469 0.52738,0.465342 -0.0476,0.124062 -0.39232,0.145222 -2.36576,0.145222 -2.05507,0 -2.31671,-0.01743 -2.37061,-0.157882 z M 111.83501,26.808 c -1.56946,-7.011099 -1.93585,-8.620839 -1.96996,-8.654951 -0.0226,-0.02258 -0.0555,-0.02305 -0.0732,-10e-4 -0.05,0.06227 -1.69921,8.658791 -1.69744,8.848 0.001,0.154318 0.15711,0.168 1.91137,0.168 h 1.90979 l -0.0806,-0.36 z m 10.97842,8.458224 c -0.0408,-0.106213 0.0391,-0.23955 0.24419,-0.408 l 0.30473,-0.250224 -0.0252,-10.271999 -0.0252,-10.272 -0.72,-0.03028 c -1.19723,-0.05035 -1.69711,0.212485 -2.15589,1.133538 -0.27595,0.553997 -0.38015,0.990323 -0.63065,2.640739 -0.23473,1.546527 -0.44362,2.123755 -0.80102,2.213456 -0.13284,0.03334 -0.28718,0.0324 -0.34299,-0.0021 -0.1094,-0.06762 -0.15022,-6.05258 -0.0432,-6.33152 0.0524,-0.136417 0.72449,-0.151852 6.61281,-0.151852 h 6.55452 l 0.0579,0.216 c 0.0763,0.284754 0.0751,5.815778 -0.001,6.101165 -0.0456,0.170234 -0.11659,0.21445 -0.30828,0.192 -0.334,-0.03911 -0.64635,-0.608876 -0.77797,-1.419141 -0.0559,-0.344313 -0.1671,-1.036424 -0.24702,-1.538024 -0.27233,-1.709154 -0.73133,-2.639392 -1.45061,-2.939926 -0.37091,-0.154981 -1.50104,-0.175874 -1.76857,-0.0327 -0.1818,0.0973 -0.18569,0.313345 -0.18569,10.313143 0,8.849674 0.0188,10.230708 0.14067,10.340622 0.0774,0.06977 0.20549,0.181179 0.28472,0.247572 0.0792,0.06639 0.11929,0.185192 0.0891,0.264 -0.0467,0.121635 -0.40926,0.143285 -2.39973,0.143285 -2.08664,0 -2.3514,-0.01737 -2.40528,-0.157776 z m 14.09445,0.0063 c -1.66369,-0.447471 -3.09642,-1.77862 -3.69053,-3.428901 -0.0792,-0.219916 -0.12482,-2.797624 -0.16005,-9.039337 l -0.0493,-8.731693 -0.24,-0.05664 c -0.15484,-0.03654 -0.24,-0.123229 -0.24,-0.244309 0,-0.18037 0.0907,-0.188673 2.33035,-0.213384 2.10705,-0.02325 2.33629,-0.01028 2.39217,0.13535 0.0419,0.109305 -0.0282,0.232861 -0.21836,0.384491 l -0.28016,0.223428 v 8.377221 8.377221 l 0.26686,0.543412 c 0.29334,0.597343 0.79828,1.106077 1.43281,1.443593 0.34985,0.186087 0.5578,0.219447 1.37233,0.220157 0.83161,7.68e-4 1.02184,-0.03075 1.42241,-0.235379 0.56481,-0.288528 1.16419,-0.92147 1.44214,-1.522918 L 142.896,31.055999 V 22.56 14.064 l -1.008,-0.048 c -0.928,-0.04419 -1.008,-0.06324 -1.008,-0.24 0,-0.186776 0.064,-0.192 2.352,-0.192 2.288,0 2.352,0.0052 2.352,0.192 0,0.148397 -0.10037,0.216777 -0.44195,0.301101 -0.60128,0.148437 -0.80317,0.269001 -1.09825,0.655859 -0.52861,0.693062 -0.5238,0.613604 -0.5238,8.645194 0,4.525953 -0.0373,7.612971 -0.0959,7.928742 -0.33664,1.815472 -2.00331,3.534212 -3.84906,3.969284 -0.76683,0.180756 -1.9878,0.179093 -2.66718,-0.0036 z m 22.10102,0.0027 c -0.11045,-0.287806 0.14774,-0.378591 1.17168,-0.411998 0.55188,-0.01801 1.00342,-0.05212 1.00342,-0.07581 0,-0.02369 0.80003,-4.154851 1.77782,-9.180362 l 1.77784,-9.137291 -0.26819,-1.2029 c -0.25621,-1.149193 -0.2795,-1.204222 -0.5217,-1.232494 -0.26276,-0.03067 -0.43321,-0.27737 -0.29034,-0.420238 0.045,-0.04495 1.115,-0.07013 2.37789,-0.05595 2.1117,0.02371 2.29879,0.03948 2.32894,0.196297 0.018,0.09379 -0.0634,0.24838 -0.18088,0.343543 l -0.21368,0.173024 2.22767,9.880457 c 1.22522,5.434252 2.26901,10.010057 2.31954,10.168457 0.0505,0.1584 0.22785,0.400601 0.39403,0.538224 0.20293,0.168039 0.28229,0.302045 0.24163,0.408 -0.0538,0.140129 -0.31105,0.157776 -2.30036,0.157776 -1.52739,0 -2.27406,-0.03426 -2.34751,-0.107699 -0.13195,-0.131952 -0.0532,-0.372301 0.12191,-0.372301 0.0704,0 0.1515,-0.03793 0.18014,-0.08428 0.0635,-0.102732 -1.44888,-6.930247 -1.55966,-7.041036 -0.0433,-0.04328 -0.98283,-0.06699 -2.08789,-0.05269 l -2.0092,0.02599 -0.50064,2.448 c -0.54068,2.643796 -0.56884,3.154969 -0.21226,3.853923 0.21283,0.417166 0.61072,0.753498 0.89385,0.755547 0.2965,0.0022 0.46683,0.140109 0.42723,0.346034 -0.0327,0.169891 -0.17155,0.182007 -2.3638,0.206208 -2.05257,0.02266 -2.33602,0.0077 -2.38748,-0.126452 z m 8.1271,-8.139921 c 0,-0.107843 -2.02481,-9.032159 -2.05646,-9.063807 -0.0213,-0.02132 -0.0855,0.19146 -0.14263,0.472847 -0.32938,1.622413 -1.64091,8.431538 -1.64091,8.519162 0,0.07179 0.60043,0.104451 1.92,0.104451 1.056,0 1.92,-0.01469 1.92,-0.03265 z"
       id="path14" />
  </g>
</svg>
